<?xml version="1.0" encoding="UTF-8"?>
<svg width="198" height="174" viewBox="0 0 396 348" fill="none" version="1.1" xmlns="http://www.w3.org/2000/svg" xmlns:xlink="http://www.w3.org/1999/xlink">
    <path
        d="M0 173.375C0 202.606 29.1497 229.894 75.1043 245.275C65.9274 290.514 73.4606 326.978 98.6192 341.185C124.478 355.789 163.004 345.68 199.57 314.38C235.214 344.416 271.236 356.237 296.373 341.988C322.209 327.343 330.066 288.407 320.635 241.755C368.501 226.259 395.275 202.991 395.275 173.375C395.275 144.821 366.073 120.12 320.736 104.837C330.889 56.2581 322.287 20.6797 296.086 5.88513C270.826 -8.37848 234.384 4.0535 198.217 34.8748C160.59 2.16101 124.508 -7.82626 98.3349 7.00936C73.0986 21.3141 65.8978 58.4411 75.1043 104.516C30.7001 119.676 0 144.937 0 173.375Z"
        fill="white"
    />
    <path
        d="M311.135 120.014C307.399 118.759 303.631 117.596 299.835 116.527C300.464 114.022 301.046 111.506 301.581 108.98C310.135 68.3188 304.542 35.5624 285.442 24.7795C267.13 14.4378 237.181 25.2207 206.933 50.9959C203.952 53.5415 201.038 56.1605 198.192 58.8503C196.287 57.0617 194.348 55.3079 192.376 53.5897C160.675 26.027 128.9 14.4134 109.82 25.2283C91.5256 35.5989 86.1067 66.3944 93.8078 104.929C94.574 108.745 95.4391 112.541 96.4022 116.314C91.9062 117.564 87.564 118.897 83.4097 120.315C46.2452 133.003 22.5097 152.889 22.5097 173.514C22.5097 194.819 47.9883 216.187 86.7002 229.142C89.8391 230.188 93.0042 231.156 96.1925 232.048C95.1567 236.112 94.2372 240.205 93.4349 244.32C86.0927 282.185 91.8269 312.25 110.074 322.557C128.92 333.198 160.551 322.26 191.352 295.896C193.786 293.812 196.23 291.602 198.677 289.285C201.759 292.196 204.923 295.024 208.166 297.763C238.001 322.902 267.466 333.054 285.697 322.72C304.526 312.046 310.644 279.748 302.699 240.451C302.094 237.45 301.387 234.384 300.594 231.263C302.816 230.621 304.996 229.957 307.122 229.267C347.366 216.211 373.549 195.103 373.549 173.514C373.549 152.814 349.049 132.794 311.135 120.014Z"
        fill="#FFBB00"
    />
    <path
        d="M302.406 215.328C300.487 215.951 298.517 216.552 296.51 217.134C292.067 203.362 286.07 188.717 278.734 173.587C285.736 158.816 291.5 144.359 295.819 130.675C299.409 131.694 302.895 132.767 306.254 133.9C338.739 144.849 358.554 161.04 358.554 173.514C358.554 186.803 337.153 204.054 302.408 215.328H302.406ZM287.989 243.303C291.501 260.68 292.003 276.39 289.676 288.671C287.585 299.707 283.381 307.064 278.183 310.011C267.12 316.281 243.46 308.13 217.948 286.631C215.022 284.167 212.075 281.535 209.12 278.751C219.012 268.157 228.897 255.84 238.545 242.164C255.516 240.69 271.549 238.279 286.089 234.988C286.803 237.818 287.44 240.591 287.989 243.303ZM142.186 308.927C131.378 312.665 122.77 312.772 117.567 309.834C106.493 303.582 101.891 279.439 108.169 247.058C108.916 243.231 109.77 239.426 110.733 235.645C125.111 238.759 141.027 241 158.039 242.351C167.75 255.734 177.921 268.035 188.172 278.807C185.993 280.871 183.763 282.882 181.484 284.838C167.864 296.497 154.215 304.767 142.188 308.927H142.186ZM91.5506 215.246C74.4333 209.517 60.2974 202.072 50.6078 193.948C41.9016 186.646 37.5049 179.397 37.5049 173.514C37.5049 160.999 56.5626 145.033 88.3471 134.181C92.3365 132.825 96.3656 131.584 100.429 130.459C104.823 144.45 110.585 159.079 117.539 173.872C110.495 188.885 104.65 203.747 100.216 217.903C97.306 217.087 94.4165 216.201 91.5506 215.246ZM108.525 102.108C101.927 69.0915 106.308 44.1865 117.334 37.937C129.079 31.2799 155.047 40.7727 182.417 64.5702C184.167 66.0915 185.924 67.6843 187.684 69.3319C177.486 80.0554 167.408 92.2638 157.781 105.569C141.271 107.067 125.467 109.474 110.938 112.698C110.043 109.188 109.238 105.656 108.525 102.107V102.108ZM259.947 138.721C256.515 132.916 252.956 127.185 249.272 121.53C260.474 122.915 271.204 124.755 281.281 127.009C278.256 136.503 274.485 146.431 270.045 156.608C266.801 150.581 263.434 144.617 259.947 138.721ZM198.197 79.8257C205.114 87.1629 212.041 95.3566 218.855 104.245C205.033 103.606 191.188 103.603 177.365 104.236C184.185 95.4296 191.172 87.2481 198.197 79.8257ZM136.051 138.821C132.607 144.67 129.304 150.598 126.142 156.598C121.775 146.455 118.039 136.483 114.988 126.853C125.004 124.658 135.684 122.865 146.813 121.503C143.088 127.192 139.499 132.967 136.051 138.821ZM147.133 226.574C135.636 225.317 124.794 223.615 114.781 221.481C117.881 211.68 121.699 201.494 126.16 191.134C129.334 197.138 132.652 203.069 136.112 208.921C139.642 214.89 143.316 220.776 147.133 226.574ZM198.612 268.24C191.504 260.73 184.415 252.424 177.491 243.489C184.212 243.748 191.065 243.879 198.029 243.879C205.185 243.879 212.258 243.722 219.22 243.418C212.384 252.515 205.482 260.833 198.612 268.24ZM270.188 190.606C274.88 201.079 278.835 211.21 281.977 220.845C271.798 223.119 260.809 224.951 249.23 226.311C252.941 220.551 256.534 214.719 260.007 208.819C263.539 202.823 266.933 196.75 270.188 190.606ZM247.017 201.483C241.699 210.529 236.082 219.403 230.176 228.091C219.761 228.819 208.998 229.195 198.029 229.195C187.106 229.195 176.48 228.862 166.246 228.212C160.187 219.545 154.464 210.655 149.09 201.564C143.742 192.521 138.746 183.282 134.114 173.867C138.734 164.45 143.715 155.206 149.045 146.155V146.159C154.374 137.106 160.051 128.255 166.066 119.624C176.506 118.851 187.21 118.447 198.031 118.447C208.9 118.447 219.618 118.854 230.055 119.633C236.008 128.251 241.65 137.071 246.968 146.078C252.317 155.108 257.364 164.307 262.102 173.659C257.413 183.106 252.382 192.387 247.018 201.483H247.017ZM277.953 37.5004C289.707 44.1393 294.279 70.9094 286.894 106.016C286.409 108.303 285.883 110.581 285.315 112.85C270.752 109.559 254.937 107.11 238.379 105.589C228.733 92.139 218.738 79.9094 208.705 69.3243C211.334 66.8424 214.026 64.4248 216.778 62.0738C242.694 39.9877 266.916 31.2677 277.953 37.5004Z"
        fill="white"
    />
    <path
        d="M175 160C140.52 154.983 113.115 182.043 106.5 226.5C99.8847 270.957 81.4992 282 114.5 317C129.282 332.678 186.615 296.654 232.5 236C289.052 161.247 318.5 36.0001 280.499 30.5004C242.499 25.0008 176 81.0001 147 135.5C118 190 70.9993 278 112.5 317C134.072 337.272 211.131 276.314 255.998 199.5C297.446 128.538 308.911 42.5052 282.499 30.5004C256.646 18.749 179.661 65.3504 145 135C87.7539 226.04 91 303 110.5 317C129.999 331 166.5 310 197 278C227.5 246 209.952 168.726 175 160Z"
        id="path1"
    />
    <path
        d="M197.542 201.223C210.839 233.429 248.101 243.169 289.7 226.15C331.3 209.131 350.184 219.298 363.42 173.05C369.349 152.334 309.095 121.443 233.513 112.972C140.362 102.532 17.6429 141.184 32.3233 176.663C47.0037 212.143 129.112 240.712 190.779 237.809C252.446 234.905 352.108 230.368 364.441 174.77C370.852 145.87 279.087 110.753 190.132 111.412C107.954 112.021 28.1334 146.106 31.3018 174.944C34.4034 203.173 113.788 245.558 191.371 239.784C298.879 242.502 363.386 200.404 365.463 176.489C367.54 152.574 330.843 131.919 287.754 122.041C244.664 112.163 187.192 166.717 197.542 201.223Z"
        id="path2"
    />
    <path
        d="M222.947 163.258C243.713 135.279 232.883 98.3202 196.878 71.4161C160.873 44.512 159.869 23.0887 113.406 35.5477C92.5935 41.1285 97.1252 108.688 128.769 177.847C167.77 263.083 264.078 348.397 286.939 317.548C309.799 286.699 292.027 201.598 257.794 150.223C223.561 98.8487 168.369 15.7409 114.354 33.7868C86.2771 43.1671 103.408 139.917 149.763 215.842C192.587 285.983 262.898 336.87 285.991 319.309C308.596 302.119 304.07 212.242 259.183 148.7C206.173 55.1301 136.875 21.4961 115.303 32.0259C93.7303 42.5558 94.9121 84.6498 108.624 126.676C122.336 168.703 198.692 189.894 222.947 163.258Z"
        id="path3"
    />

    <circle
        cx="0"
        cy="0"
        r="15"
        fill="#FFBB00"
        stroke="#D29A00"
        strokeWidth="5"
        id="circle1"
    />
    <circle
        cx="0"
        cy="0"
        r="15"
        fill="#FFBB00"
        stroke="#D29A00"
        strokeWidth="5"
        id="circle2"
    />
    <circle
        cx="0"
        cy="0"
        r="15"
        fill="#FFBB00"
        stroke="#D29A00"
        strokeWidth="5"
        id="circle3"
    />

    <animateMotion
        xlinkHref="#circle3"
        dur="8s"
        begin="0s"
        fill="freeze"
        repeatCount="indefinite"
    >
        <mpath xlinkHref="#path3" />
    </animateMotion>

    <animateMotion
        xlinkHref="#circle1"
        dur="6.5s"
        begin="0s"
        fill="freeze"
        repeatCount="indefinite"
    >
        <mpath xlinkHref="#path1" />
    </animateMotion>

    <animateMotion
        xlinkHref="#circle2"
        dur="7.5s"
        begin="0s"
        fill="freeze"
        repeatCount="indefinite"
    >
        <mpath xlinkHref="#path2" />
    </animateMotion>
    </svg>