<svg width="128" height="128" viewBox="0 0 128 128" fill="none" xmlns="http://www.w3.org/2000/svg">
<path d="M0 63.7843C0 73.8642 9.402 83.2736 24.2243 88.5776C21.2644 104.177 23.6941 116.751 31.8088 121.65C40.1495 126.686 52.5756 123.2 64.3698 112.407C75.8664 122.764 87.4852 126.84 95.5929 121.927C103.926 116.877 106.46 103.451 103.418 87.3638C118.857 82.0204 127.493 73.9969 127.493 63.7843C127.493 53.9384 118.074 45.4208 103.451 40.1508C106.726 23.3993 103.951 11.1309 95.5002 6.02931C87.3529 1.11083 75.5988 5.39772 63.9334 16.0258C51.7969 4.74513 40.159 1.30125 31.7171 6.41698C23.5774 11.3496 21.2548 24.1521 24.2243 40.0401C9.90208 45.2676 0 53.9783 0 63.7843Z" fill="white"/>
<path d="M100.354 45.3841C99.1492 44.9513 97.9338 44.5504 96.7094 44.1817C96.9124 43.318 97.1002 42.4503 97.2726 41.5793C100.032 27.5582 98.2277 16.2629 92.0672 12.5447C86.1609 8.97856 76.5008 12.6968 66.7445 21.5848C65.7832 22.4626 64.8432 23.3657 63.9254 24.2932C63.3108 23.6765 62.6853 23.0717 62.0493 22.4792C51.8245 12.9748 41.5757 8.97017 35.4218 12.6994C29.5209 16.2755 27.7731 26.8946 30.257 40.1823C30.5041 41.4982 30.7832 42.8073 31.0938 44.1083C29.6437 44.5395 28.2431 44.999 26.9032 45.4879C14.9161 49.863 7.26038 56.7203 7.26038 63.8326C7.26038 71.1789 15.4783 78.5471 27.9645 83.0145C28.977 83.375 29.9978 83.7091 31.0262 84.0164C30.6921 85.4181 30.3955 86.8293 30.1367 88.2483C27.7686 101.305 29.6181 111.672 35.5034 115.226C41.5822 118.896 51.7844 115.124 61.7191 106.033C62.5043 105.314 63.2925 104.552 64.0817 103.753C65.0758 104.757 66.0964 105.732 67.1424 106.677C76.7654 115.346 86.2691 118.846 92.1494 115.283C98.2227 111.602 100.196 100.465 97.6334 86.9142C97.4379 85.8792 97.21 84.8222 96.9544 83.7458C97.671 83.5244 98.374 83.2957 99.06 83.0575C112.04 78.5555 120.485 71.277 120.485 63.8326C120.485 56.6946 112.583 49.7911 100.354 45.3841Z" fill="#FFBB00"/>
<path d="M97.5386 78.2512C96.9198 78.4658 96.2844 78.673 95.637 78.8739C94.2038 74.1249 92.2696 69.0747 89.9035 63.8577C92.1619 58.764 94.0209 53.7789 95.414 49.0603C96.572 49.4118 97.6965 49.7816 98.7798 50.1724C109.258 53.9479 115.649 59.531 115.649 63.8326C115.649 68.4148 108.746 74.3636 97.5391 78.2512H97.5386ZM92.8885 87.8978C94.0215 93.8896 94.1833 99.3069 93.4327 103.542C92.7582 107.347 91.4022 109.884 89.7256 110.9C86.1573 113.063 78.5262 110.252 70.2972 102.838C69.3537 101.989 68.4031 101.081 67.45 100.121C70.6405 96.4679 73.8289 92.2209 76.9407 87.5049C82.4146 86.9966 87.5859 86.1651 92.2756 85.0304C92.5061 86.0062 92.7116 86.9625 92.8885 87.8978ZM45.861 110.527C42.3749 111.816 39.5983 111.852 37.9202 110.839C34.3484 108.683 32.8641 100.358 34.889 89.1925C35.1298 87.8729 35.4055 86.5606 35.7158 85.2571C40.3535 86.3309 45.4872 87.1036 50.9741 87.5694C54.1064 92.1842 57.3871 96.4259 60.6933 100.141C59.9906 100.852 59.2714 101.545 58.5361 102.22C54.143 106.24 49.7409 109.092 45.8615 110.527H45.861ZM29.5289 78.2229C24.0078 76.2473 19.4484 73.68 16.3231 70.8788C13.515 68.3608 12.0969 65.8611 12.0969 63.8326C12.0969 59.5168 18.2438 54.0113 28.4956 50.2695C29.7824 49.8019 31.0819 49.3738 32.3926 48.9858C33.8097 53.8104 35.6682 58.8548 37.9111 63.9558C35.6392 69.133 33.7541 74.2576 32.324 79.1388C31.3852 78.8576 30.4533 78.5522 29.5289 78.2229ZM35.0038 39.2097C32.8757 27.8247 34.2887 19.2367 37.845 17.0818C41.6332 14.7862 50.009 18.0596 58.8373 26.2656C59.4015 26.7902 59.9682 27.3394 60.536 27.9076C57.2468 31.6054 53.9962 35.8151 50.8909 40.4031C45.5658 40.9198 40.4682 41.7497 35.782 42.8613C35.4933 41.651 35.2338 40.4332 35.0038 39.2092V39.2097ZM83.8438 51.8348C82.7369 49.8333 81.589 47.8569 80.4008 45.9071C84.0136 46.3844 87.4747 47.0192 90.7248 47.7961C89.7491 51.07 88.533 54.4934 87.1009 58.0029C86.0545 55.9244 84.9686 53.8679 83.8438 51.8348ZM63.9268 31.5261C66.1577 34.0562 68.3921 36.8816 70.5899 39.9467C66.1317 39.7262 61.666 39.7251 57.2077 39.9436C59.4075 36.9068 61.6609 34.0856 63.9268 31.5261ZM43.8822 51.8695C42.7714 53.8864 41.7058 55.9302 40.6862 57.9992C39.2776 54.5018 38.0725 51.0632 37.0883 47.7426C40.3189 46.9856 43.7639 46.3671 47.3532 45.8976C46.1517 47.8595 44.9944 49.8507 43.8822 51.8695ZM47.4564 82.129C43.7484 81.6957 40.2512 81.1086 37.0217 80.3727C38.0214 76.9933 39.2531 73.4807 40.6917 69.9083C41.7156 71.9788 42.7859 74.0239 43.9017 76.0417C45.0402 78.1001 46.2255 80.1297 47.4564 82.129V82.129ZM64.0606 96.4968C61.7681 93.9069 59.4817 91.0427 57.2483 87.9618C59.416 88.051 61.6263 88.0961 63.8727 88.0961C66.1808 88.0961 68.4622 88.0421 70.7076 87.9371C68.5028 91.0742 66.2765 93.9426 64.0606 96.4968ZM87.147 69.7263C88.6603 73.3375 89.936 76.8312 90.9493 80.1534C87.6661 80.9376 84.1219 81.5692 80.3872 82.0382C81.584 80.052 82.7429 78.041 83.8633 76.0066C85.0022 73.9389 86.0971 71.8449 87.147 69.7263ZM79.6732 73.477C77.958 76.5962 76.1465 79.6561 74.2413 82.652C70.882 82.9033 67.4104 83.0328 63.8727 83.0328C60.3496 83.0328 56.9221 82.9179 53.6214 82.6939C51.6668 79.705 49.821 76.6398 48.0878 73.5048C46.3627 70.3865 44.7514 67.2007 43.2573 63.9543C44.7476 60.7069 46.3541 57.5194 48.0733 54.3985V54.3995C49.792 51.2779 51.6233 48.2258 53.5633 45.2497C56.9306 44.9833 60.3831 44.8437 63.8732 44.8437C67.3789 44.8437 70.8359 44.9843 74.2022 45.2529C76.1226 48.2244 77.9422 51.2659 79.6576 54.3717C81.3828 57.4857 83.0107 60.6576 84.5388 63.8824C83.0264 67.1401 81.4037 70.3403 79.6737 73.477H79.6732ZM89.6514 16.9312C93.4427 19.2205 94.9174 28.4516 92.5352 40.5574C92.3791 41.346 92.2093 42.1316 92.0261 42.9138C87.3289 41.7791 82.2277 40.9345 76.8871 40.4099C73.7758 35.7721 70.5523 31.555 67.3162 27.9049C68.1642 27.0491 69.0324 26.2155 69.9199 25.4048C78.2791 17.7889 86.0917 14.782 89.6514 16.9312Z" fill="white"/>
<path d="M68.1772 64.0912C68.1772 62.9081 67.7586 61.8981 66.9216 61.061C66.0845 60.224 65.0745 59.8054 63.8914 59.8054C62.7084 59.8054 61.6984 60.224 60.8613 61.061C60.0243 61.8981 59.6057 62.9081 59.6057 64.0912C59.6057 65.2742 60.0243 66.2842 60.8613 67.1213C61.6984 67.9583 62.7084 68.3769 63.8914 68.3769C65.0745 68.3769 66.0845 67.9583 66.9216 67.1213C67.7586 66.2842 68.1772 65.2742 68.1772 64.0912ZM76.7486 62.2664V65.9829C76.7486 66.1168 76.7039 66.2452 76.6147 66.3679C76.5254 66.4907 76.4138 66.5633 76.2798 66.5856L73.1827 67.0543C72.9707 67.657 72.7531 68.1648 72.5298 68.5778C72.9205 69.1358 73.5176 69.9059 74.3211 70.888C74.4327 71.022 74.4885 71.1615 74.4885 71.3066C74.4885 71.4517 74.4383 71.58 74.3379 71.6916C74.0365 72.1046 73.4841 72.7072 72.6805 73.4996C71.8769 74.2921 71.3524 74.6883 71.1068 74.6883C70.9729 74.6883 70.8278 74.638 70.6716 74.5376L68.3613 72.7296C67.8702 72.9862 67.3624 73.1983 66.8379 73.3657C66.6593 74.8836 66.4975 75.9215 66.3524 76.4796C66.2743 76.7921 66.0734 76.9483 65.7497 76.9483H62.0332C61.8769 76.9483 61.7402 76.9009 61.623 76.806C61.5058 76.7111 61.4417 76.5912 61.4305 76.4461L60.9618 73.3657C60.4149 73.1871 59.9127 72.9807 59.4551 72.7463L57.0946 74.5376C56.983 74.638 56.8435 74.6883 56.676 74.6883C56.5198 74.6883 56.3803 74.6269 56.2575 74.5041C54.8513 73.2318 53.9305 72.2943 53.4952 71.6916C53.4171 71.58 53.3781 71.4517 53.3781 71.3066C53.3781 71.1726 53.4227 71.0443 53.512 70.9215C53.6794 70.6871 53.964 70.316 54.3658 69.8082C54.7676 69.3004 55.0689 68.907 55.2698 68.628C54.9685 68.07 54.7397 67.5175 54.5834 66.9706L51.5198 66.5186C51.3747 66.4963 51.2575 66.4265 51.1682 66.3094C51.0789 66.1922 51.0343 66.061 51.0343 65.9159V62.1994C51.0343 62.0655 51.0789 61.9371 51.1682 61.8144C51.2575 61.6916 51.3635 61.6191 51.4863 61.5967L54.6002 61.128C54.7564 60.6146 54.974 60.1012 55.2531 59.5878C54.8066 58.9517 54.2095 58.1816 53.4618 57.2775C53.3502 57.1436 53.2943 57.0097 53.2943 56.8758C53.2943 56.7641 53.3446 56.6358 53.445 56.4907C53.7352 56.0889 54.2849 55.489 55.094 54.691C55.9032 53.8931 56.4305 53.4941 56.676 53.4941C56.8211 53.4941 56.9662 53.5499 57.1113 53.6615L59.4216 55.4528C59.9127 55.1961 60.4205 54.984 60.945 54.8166C61.1236 53.2987 61.2854 52.2608 61.4305 51.7028C61.5086 51.3903 61.7095 51.234 62.0332 51.234H65.7497C65.906 51.234 66.0427 51.2814 66.1599 51.3763C66.277 51.4712 66.3412 51.5912 66.3524 51.7362L66.8211 54.8166C67.368 54.9952 67.8702 55.2016 68.3278 55.436L70.7051 53.6447C70.8055 53.5443 70.9394 53.4941 71.1068 53.4941C71.2519 53.4941 71.3914 53.5499 71.5254 53.6615C72.9651 54.9896 73.8859 55.9383 74.2877 56.5075C74.3658 56.5967 74.4048 56.7195 74.4048 56.8758C74.4048 57.0097 74.3602 57.138 74.2709 57.2608C74.1035 57.4952 73.8189 57.8663 73.4171 58.3741C73.0153 58.8819 72.714 59.2753 72.5131 59.5543C72.8033 60.1124 73.0321 60.6592 73.1995 61.195L76.2631 61.6637C76.4082 61.686 76.5254 61.7558 76.6147 61.873C76.7039 61.9902 76.7486 62.1213 76.7486 62.2664Z" fill="#FFBB00"/>
<path d="M16.1456 68C19.5399 68 22.2912 70.8847 22.2912 74.4427C22.2912 78.0011 19.5399 80.8858 16.1456 80.8858C12.7516 80.8858 10 78.0011 10 74.4427C10 70.8847 12.7516 68 16.1456 68Z" fill="#FFBB00"/>
<path d="M77.1456 11C80.5399 11 83.2912 13.8847 83.2912 17.4427C83.2912 21.0011 80.5399 23.8858 77.1456 23.8858C73.7516 23.8858 71 21.0011 71 17.4427C71 13.8847 73.7516 11 77.1456 11Z" fill="#FFBB00"/>
<path d="M102.291 101.443C102.291 105.001 99.5399 107.886 96.1456 107.886C92.7516 107.886 90 105.001 90 101.443C90 97.8847 92.7516 95 96.1456 95C99.5399 95 102.291 97.8847 102.291 101.443Z" fill="#FFBB00"/>
</svg>
